<?xml version="1.0" encoding="utf-8"?>
<!-- Generator: Adobe Illustrator 18.1.1, SVG Export Plug-In . SVG Version: 6.00 Build 0)  -->
<!DOCTYPE svg PUBLIC "-//W3C//DTD SVG 1.1//EN" "http://www.w3.org/Graphics/SVG/1.1/DTD/svg11.dtd">
<svg version="1.1"
	 id="svg2" xmlns:svg="http://www.w3.org/2000/svg" xmlns:cc="http://creativecommons.org/ns#" xmlns:dc="http://purl.org/dc/elements/1.1/" xmlns:rdf="http://www.w3.org/1999/02/22-rdf-syntax-ns#" xmlns:sodipodi="http://sodipodi.sourceforge.net/DTD/sodipodi-0.dtd" xmlns:inkscape="http://www.inkscape.org/namespaces/inkscape" sodipodi:docname="New document 1" inkscape:version="0.48.2 r9819"
	 xmlns="http://www.w3.org/2000/svg" xmlns:xlink="http://www.w3.org/1999/xlink" x="0px" y="0px" viewBox="0 -315.3 360 134"
	 enable-background="new 0 -315.3 360 134" xml:space="preserve">
<sodipodi:namedview  bordercolor="#666666" pagecolor="#ffffff" id="base" inkscape:zoom="0.175" showgrid="false" inkscape:cy="-285.60822" fit-margin-top="0.5" borderopacity="1.0" inkscape:cx="918.14144" fit-margin-left="0.5" fit-margin-bottom="0.5" inkscape:pageopacity="0.0" inkscape:current-layer="layer1" inkscape:window-y="-21" inkscape:window-x="-10" inkscape:window-width="1212" inkscape:window-height="1039" inkscape:pageshadow="2" inkscape:document-units="px" fit-margin-right="0.5" inkscape:window-maximized="0">
	</sodipodi:namedview>
<g id="layer1" transform="translate(865.38874,-338.99002)" inkscape:label="Layer 1" inkscape:groupmode="layer">
	<path id="path2996" inkscape:connector-curvature="0" fill="#B81226" d="M-854.4,156.9c-2.5-0.3-4.4-1.2-5.8-2.7
		c-1.2-1.2-1.7-2-2.2-3.8c-0.4-1.2-0.4-1.5-0.4-4.1c0-2.4,0-3,0.4-4.6c0.8-3.7,2.2-7.2,4.5-10.7c1.1-1.6,1.7-2.4,2.9-3.3
		c2.3-1.7,4.7-2.4,7-1.8c0.9,0.2,1.5,0.8,1.5,1.3c0,1-1,2.7-3.6,6.2c-5,6.7-6.7,10.6-6.5,15c0.1,1.3,0.1,1.5,0.6,2.4
		c0.4,0.8,0.6,1.1,1.2,1.4c0.6,0.4,0.9,0.5,2,0.5c2.5,0.1,4.5-0.8,6.8-3.2c3-3,5.5-7.8,7.8-14.9c2.7-8.4,4.8-19.9,5.3-29.3
		c0.2-3,0-10.5-0.3-10.9c-0.1-0.2-0.2-0.1-0.5,0.5c-0.7,1.2-2.4,3.7-3.7,5.4c-4.1,5.4-8.8,10.1-12.6,12.2c-5.7,3.3-11.1,2.5-13.2-2
		c-0.9-1.7-1.1-3.1-1.2-5.7c-0.1-2.7,0.1-4.2,0.8-6.9c2-8.1,7.7-16.1,14.5-20.6c4.4-2.9,10-4.6,15.1-4.6c5.2,0,11,2.3,12.2,4.7
		c0.4,0.8,0.4,1.6,0,2c-0.6,0.5-1.1,0.4-3.4-0.8c-3.4-1.7-4.9-2.1-7.3-1.9c-8.1,0.6-16.1,6.3-22,15.9c-2.8,4.5-4.3,8.6-4.3,11.8
		c0,1.7,0.3,2.7,1.1,3.5c1.3,1.3,3.1,1.2,5.7-0.1c5.4-2.7,14.1-12.7,18-20.7c1.7-3.4,2.8-4.8,4.7-5.7c0.7-0.4,0.9-0.4,2.1-0.4
		c1,0,1.4,0.1,1.9,0.3c0.8,0.4,1.4,1,1.8,1.8c0.3,0.6,0.3,0.9,0.3,6c-0.1,22.5-3.5,42-9.3,53.5c-1.8,3.5-3.5,6-5.8,8.3
		c-3,3-6.1,4.8-9.9,5.6C-850.1,157-852.9,157.1-854.4,156.9L-854.4,156.9z M-787.8,148.3c-4.1-1.1-6.5-6.7-7.5-17.1
		c-0.2-2.2-0.3-12.8-0.1-18.7l0.1-3.8l-0.5,1.2c-3.2,7.2-8.8,10.7-14,8.7c-3.5-1.3-6-6.2-6.8-13.5c-0.3-2.6-0.2-7.1,0.1-9.5
		c0.7-4.4,1.7-8.6,2.7-10.8c1.5-3.3,3.8-4.9,6.9-4.9c1.8,0,2.5,0.5,2.6,1.9c0.1,1.2-0.3,3.1-1.8,7.4c-1.9,5.7-2.2,7.6-2.4,13.1
		c-0.1,4,0.1,5.8,0.6,7.6c1,3.1,3,4,5.3,2.2c2.4-1.8,5.8-8.8,7.5-15.6c0.7-2.7,1-4.5,1.5-8.3c1.9-16.9,5.5-31.5,12.1-49.5
		c2.9-7.9,3.4-9,4.9-10.5c2.3-2.3,7.5-4.2,9.3-3.4c1.1,0.5,1.6,1.6,1.6,3.3c0,1.4-0.5,2.7-2.1,5.9c-9.1,18.1-15.2,36.3-18.1,53.3
		c-0.2,1-0.2,1.3,0,1.4c0.4,0.2,3.3,0.8,4.9,1.1c4.9,0.6,12.4,0.7,15.2,0.1c2.1-0.4,3.4-0.9,3.5-1.1c0-0.1,0.1-1.3,0.1-2.6
		c0-2.7,0.2-6.4,0.5-9.6c0.2-2.3,0.8-6.6,1.1-7.6c0.2-1,0.2-1.1-0.5-0.9c-1.4,0.3-7.4,1.3-8,1.3c-0.8,0-1.7-0.5-2.1-1.1
		c-0.2-0.4-0.3-0.7-0.3-1.5c0-1.3,0.4-2,1.5-2.6c1-0.5,1.8-0.7,6.3-1.5c2.1-0.4,3.9-0.7,3.9-0.7c0,0,0.4-1.2,0.9-2.6
		c4.6-14.6,10-23.3,15.7-25.1c1.3-0.4,2.8-0.5,3.7-0.2c0.8,0.2,1.8,1.2,2.4,2.2c1.9,3.8,1.6,13.1-0.6,21.3c-0.3,1-0.5,1.8-0.5,1.8
		c0,0,1.1-0.1,2.5-0.3c3.3-0.4,6.4-0.6,7-0.5c0.7,0.1,1,0.6,1,1.4c0,1.4-0.9,2-3.8,2.8c-1.5,0.4-7.9,1.8-8.2,1.8
		c0,0-0.1,0.1-0.1,0.2c0,0.4-1.2,3.9-2,5.9c-2.1,5.2-6.1,12.6-9.2,16.9c-0.7,1-1.6,2.2-1.9,2.8l-0.7,1l0,3c0,3.2,0.3,6.3,0.8,9.3
		c1,5.9,2.6,9.3,4.7,10.4c0.7,0.4,0.9,0.4,1.8,0.3c3.4-0.3,7.6-3.5,12.3-9.4c5-6.3,9.1-13.6,11.6-20.6l0.6-1.8l-0.4-1.5
		c-0.5-2-0.7-5.2-0.3-7.2c0.7-3.6,2.5-7.3,4.4-8.8c0.7-0.6,2-1.2,2.8-1.3c2.4-0.4,4,2,4,5.9c0,2.7-0.7,6.1-2,9.5l-0.5,1.4l1.2,2.5
		c0.7,1.4,2.1,4.1,3.1,6.1c4.6,8.7,5.9,12.6,5.9,17.7c0,1.9-0.1,2.5-0.3,3.6c-0.4,1.6-1,3.2-1.6,4.1l-0.4,0.7l0.4,0
		c0.4,0.1,1.6-0.3,2.6-0.8c3.9-1.9,11.1-8.9,15-14.4c1.6-2.2,2.5-2.9,3.5-2.6c0.6,0.2,1,0.8,1.1,1.7c0.1,0.7,0,0.9-0.4,1.7
		c-0.7,1.4-3.1,4.9-4.9,7.2c-6.7,8.4-13.7,12.5-23.4,14c-2.7,0.4-8.9,0.4-11.2-0.1c-2.1-0.4-4.1-1-5.3-1.7c-1.3-0.7-2.7-2.1-3-2.9
		c-0.6-1.6,0.5-2.9,2.1-2.4c0.3,0.1,1.1,0.5,1.8,0.9c1.5,0.9,2.5,1.3,4,1.6c1.6,0.3,4.6,0.3,5.9,0c3.1-0.7,5.3-3,6.1-6.3
		c0.3-1.3,0.4-4.6,0.1-6.2c-0.6-3.2-1.8-7-3.3-10.5c-1.4-3.1-4-7.8-4.2-7.5c0,0.1-0.3,0.8-0.7,1.7c-4.7,12.5-14.5,25.8-22.4,30.4
		c-3.7,2.2-7.2,2.6-10,1.3c-5-2.4-8.5-10.7-9.8-23.2c-0.1-1.3-0.3-2.4-0.3-2.4c0,0-0.7,0.1-1.6,0.2c-3.9,0.6-6.8,0.6-11.2-0.2
		l-0.6-0.1l0.7,0.7c3.7,3.9,5.9,11.4,6.2,21c0.3,11.6-3,22.6-8.3,28c-1.4,1.5-2.2,2-3.7,2.8C-782.8,148.3-786,148.8-787.8,148.3
		L-787.8,148.3z M-783.7,143.9c4-1.9,6.6-9.3,7.4-20.6c0.7-9.4-2-18.2-6.9-23.2c-1.1-1.1-2.7-2.4-3.8-2.9c-0.5-0.3-0.5-0.3-0.6,0
		c-0.1,0.4-1.4,9.4-1.8,12.8c-0.8,7.1-1.1,11.6-1.1,17.3c0,9.4,1.3,15.7,3.6,17C-786.1,144.6-784.9,144.5-783.7,143.9L-783.7,143.9z
		 M-752.7,82.7c2.7-4,6-10.6,7.6-15c0.5-1.4,0.6-2,0.3-1.9c-0.1,0-1.4,0.2-2.9,0.4c-1.5,0.2-3.1,0.5-3.7,0.6c-0.9,0.2-1,0.2-1.1,0.8
		c-0.5,1.9-1.1,6.6-1.4,11.7c-0.1,1.9-0.3,3.9-0.3,4.5l-0.1,1.1l0.3-0.4C-753.8,84.3-753.3,83.5-752.7,82.7L-752.7,82.7z
		 M-747.7,60.8c2-0.2,3.9-0.5,4.4-0.6c0.7-0.1,0.8-0.2,0.9-0.7c2.2-8,2.8-11.5,2.8-16.1c0-2.3,0-2.8-0.4-3.5
		c-0.2-0.3-0.3-0.4-0.8-0.4c-1.7,0-3.6,2-5.7,6.2c-2,4-4.2,10.4-5,14.6c-0.2,0.8-0.2,1,0,1C-751.4,61.2-749.7,61-747.7,60.8
		L-747.7,60.8z M-532.7,122.4c-2.6-0.8-4.2-3.3-5-7.8c-0.4-2.3-0.4-10.6,0.1-16.3c0.5-5.7,0.5-12.3,0.1-13.4c-1.1-2.9-4-1-8.8,5.7
		c-2.9,4-6,9.1-11.3,18.4c-4.1,7.3-4.6,8.1-5.3,8.6c-0.9,0.7-2,0.8-2.7,0.3c-1.1-1-2-4.5-2.5-10c-0.4-4.2-0.5-8.5-0.5-15.7
		c0-7-0.1-7.7-0.6-8.3c-0.3-0.4-1.1-0.2-1.9,0.3c-1,0.7-3,2.8-4.5,4.9c-4.4,5.9-11.7,18.1-16.2,27.1c-0.8,1.6-1.5,2.4-2.4,2.8
		c-1.4,0.7-2.7,0.3-3.3-0.8c-0.5-0.9-0.3-3.4,0.7-9.9c2.1-13.7,6-30.8,7.9-34.8c1.2-2.6,4.8-4.6,8.3-4.7c1,0,1.2,0,1.7,0.3
		c0.6,0.5,0.9,1.1,0.9,2.3c0,1.8-0.7,3.9-3,9.4c-2,4.6-2.8,7.5-3.7,11.7c-0.4,2.2-0.5,2.9-0.4,2.7c0.1-0.1,0.8-1.2,1.7-2.5
		c5.4-8.1,10.6-13.8,13.9-15.5c1-0.5,1.3-0.6,2.1-0.6c2,0,3.4,1.5,4.2,4.7c0.4,1.4,0.4,2.3,0.3,15.5c0,7.1,0,8.4,0.6,9l0.3,0.3
		l0.4-0.5c0.2-0.2,0.9-1.2,1.4-2.1c1.3-2.2,3.4-5.3,6.4-9.6c1.4-1.9,3.3-4.7,4.3-6.1c4.1-6,7-8.9,10-10.4c1.6-0.8,2.6-1,4.1-0.9
		c1,0,1.3,0.1,2.1,0.5c1.9,0.9,3.3,2.9,3.9,5.6c0.2,1,0.3,1.7,0.3,3.9c0,3-0.1,4.8-0.7,11.9c-0.6,6.7-0.7,9.2-0.7,12.1
		c0,4.6,0.8,6.3,3.1,6.3c3.4,0,9.9-5.2,15.8-12.6c1.9-2.3,2.5-2.9,3.3-3.2c1.1-0.3,1.9,0.5,1.9,2c0,0.9-0.2,1.3-1.6,3.1
		c-4,5.2-10.1,11-14.6,13.7C-526.7,122.3-530.2,123.2-532.7,122.4L-532.7,122.4z M-658.4,119c-3.1-0.5-5.3-1.6-7.4-3.9
		c-4.3-4.6-5.9-12.7-4.3-21.1c1.8-9.1,6.8-16.6,12.9-19.7c2.3-1.1,4.4-1.6,7.1-1.6c4.8,0,7.6,2,8.4,5.9c0.2,0.8,0.2,1.6,0.2,3.2
		c-0.2,5-1.7,7.9-4.7,8.4c-0.6,0.1-1.2,0-1.5-0.3c-0.4-0.4-0.3-1.3,0.5-3.2c1-2.5,1.2-3.5,1.2-5.2c0-2.8-0.8-4-2.7-4
		c-1.7,0-3.4,0.8-5.1,2.6c-1.4,1.4-2.4,2.9-3.6,5.4c-1.9,3.9-3.4,8.8-3.9,13.3c-0.5,3.9-0.2,6.9,1.2,9.7c1.9,4.1,5.6,5.5,11.4,4.3
		c6.5-1.3,12.5-6,16.6-12.8c1.2-2,1.6-2.9,2.3-5.5c1.8-6.1,4.4-10.8,7.8-14.2c1.7-1.7,3-2.6,4.9-3.6c2-1,3.6-1.4,5.6-1.5
		c5.9-0.3,9.7,3.8,10.7,11.6c0.2,1.8,0.1,7.4-0.2,9.4c-1.2,7.2-3.9,13-8,17.1c-3.6,3.5-7.8,5.5-11.8,5.5c-1.7,0-2.7-0.2-4.2-0.9
		c-2.3-1.1-4-3.2-5.1-6.2c-0.5-1.4-1.1-3.9-1.1-4.8c0-0.3-0.1-0.5-0.1-0.6c-0.1,0-0.4,0.3-0.8,0.8s-1.5,1.6-2.4,2.5
		c-5.3,5.1-11.3,8.2-17.8,9.2C-654.2,119.1-657.3,119.2-658.4,119L-658.4,119z M-615.4,112.8c3.3-1.6,6-4.7,7.9-9
		c1.4-3.3,2.1-6.4,2.2-10.4c0.1-3.3,0-4.7-0.7-6.6c-0.6-1.7-1-2.4-1.9-3.3c-2.1-2-5.4-1.5-8.2,1.2c-3.2,3-5.8,8.7-7,15.3
		c-1,5.5-0.2,10.2,2,12.3c1.1,1,1.7,1.2,3.3,1.1C-616.7,113.3-616.4,113.3-615.4,112.8L-615.4,112.8z M-679.5,116.5
		c-1.1-0.2-1.8-0.6-2.5-1.4c-0.8-0.9-1.1-1.9-1-3.5c0.3-3.9,2.6-5.6,5.6-4.3c1,0.5,1.7,1.1,2.2,2c0.4,0.7,0.4,0.9,0.4,2.3
		c0,1.8-0.3,2.9-1,3.8C-676.6,116.4-678,116.8-679.5,116.5L-679.5,116.5z"/>
	<path id="path2998" inkscape:connector-curvature="0" fill="#EFD461" d="M-796.5,67c0,4.4-3.6,8-7.9,8c-4.4,0-7.9-3.6-7.9-8
		s3.6-8,7.9-8C-800.1,59.1-796.5,62.6-796.5,67z"/>
</g>
</svg>
