<?xml version="1.0" encoding="utf-8"?>
<!-- Generator: Adobe Illustrator 15.1.0, SVG Export Plug-In . SVG Version: 6.00 Build 0)  -->
<!DOCTYPE svg PUBLIC "-//W3C//DTD SVG 1.1//EN" "http://www.w3.org/Graphics/SVG/1.1/DTD/svg11.dtd">
<svg version="1.1" id="Layer_1" xmlns="http://www.w3.org/2000/svg" xmlns:xlink="http://www.w3.org/1999/xlink" x="0px" y="0px"
	 width="49.171px" height="49.25px" viewBox="0 0 49.171 49.25" enable-background="new 0 0 49.171 49.25" xml:space="preserve">
<g>
	<circle fill="#5CC8EC" cx="24.625" cy="24.625" r="24.624"/>
	<path fill="#FFFFFF" d="M37.031,19.662c0.012,0.266,0.018,0.533,0.018,0.803c0,8.201-6.242,17.656-17.657,17.656
		c-3.505,0-6.768-1.027-9.514-2.787c0.486,0.057,0.979,0.086,1.48,0.086c2.908,0,5.584-0.992,7.707-2.656
		c-2.715-0.051-5.007-1.846-5.797-4.311c0.379,0.074,0.768,0.111,1.168,0.111c0.566,0,1.114-0.074,1.635-0.217
		c-2.84-0.57-4.979-3.08-4.979-6.083c0-0.027,0-0.053,0.001-0.08c0.837,0.465,1.794,0.744,2.812,0.777
		c-1.666-1.115-2.762-3.012-2.762-5.166c0-1.137,0.307-2.204,0.84-3.12c3.061,3.754,7.635,6.225,12.792,6.483
		c-0.106-0.453-0.161-0.928-0.161-1.414c0-3.426,2.78-6.205,6.206-6.205c1.785,0,3.398,0.754,4.529,1.959
		c1.416-0.277,2.742-0.795,3.941-1.506c-0.463,1.45-1.447,2.666-2.729,3.434c1.256-0.15,2.451-0.484,3.564-0.978
		C39.297,17.693,38.242,18.787,37.031,19.662z"/>
</g>
</svg>
