<?xml version="1.0" encoding="utf-8"?>
<!-- Generator: Adobe Illustrator 15.1.0, SVG Export Plug-In . SVG Version: 6.00 Build 0)  -->
<!DOCTYPE svg PUBLIC "-//W3C//DTD SVG 1.1//EN" "http://www.w3.org/Graphics/SVG/1.1/DTD/svg11.dtd">
<svg version="1.1" id="Layer_1" xmlns="http://www.w3.org/2000/svg" xmlns:xlink="http://www.w3.org/1999/xlink" x="0px" y="0px"
	 width="49.171px" height="49.25px" viewBox="0 0 49.171 49.25" enable-background="new 0 0 49.171 49.25" xml:space="preserve">
<g>
	<circle fill="#CB2128" cx="24.585" cy="24.625" r="24.625"/>
	<path fill="#FFFFFF" d="M23.578,8.113C11.826,8.113,5.9,16.538,5.9,23.564c0,4.255,1.609,8.038,5.066,9.448
		c0.566,0.232,1.074,0.009,1.238-0.617c0.113-0.435,0.385-1.53,0.504-1.988c0.166-0.618,0.102-0.835-0.355-1.376
		c-0.996-1.175-1.633-2.695-1.633-4.852c0-6.25,4.678-11.846,12.178-11.846c6.643,0,10.292,4.06,10.292,9.478
		c0,7.133-3.154,13.152-7.84,13.152c-2.588,0-4.525-2.139-3.904-4.765c0.742-3.133,2.182-6.515,2.182-8.778
		c0-2.024-1.086-3.712-3.334-3.712c-2.646,0-4.771,2.737-4.771,6.402c0,2.335,0.789,3.915,0.789,3.915s-2.705,11.469-3.182,13.479
		c-0.359,1.525-0.465,3.181-0.453,4.674c1.051,0.582,2.148,1.09,3.285,1.516c0.836-1.392,1.686-3.067,2.148-4.745
		c0.303-1.1,1.738-6.799,1.738-6.799c0.861,1.642,3.371,3.082,6.043,3.082c7.951,0,13.346-7.246,13.346-16.948
		C39.236,14.945,33.023,8.113,23.578,8.113z"/>
</g>
</svg>
